<?xml version="1.0" encoding="utf-8"?>
<!-- Generator: Adobe Illustrator 23.1.1, SVG Export Plug-In . SVG Version: 6.00 Build 0)  -->
<svg version="1.1" id="Camada_1" xmlns="http://www.w3.org/2000/svg" xmlns:xlink="http://www.w3.org/1999/xlink" x="0px" y="0px"
	 viewBox="0 0 595.28 841.89" style="enable-background:new 0 0 595.28 841.89;" xml:space="preserve">
<style type="text/css">
	.st0{fill:#FFFFFF;}
</style>
<g>
	<g>
		<path class="st0" d="M473.36,619.85c-117.12,0-234.24,0-351.36,0c0-132.32,0-264.64,0-396.96c117.12,0,234.24,0,351.36,0
			C473.36,355.21,473.36,487.53,473.36,619.85z M297.34,451.97c2.15,2.17,4.16,4.22,6.21,6.24c6.48,6.39,13.41,12.2,21.25,16.87
			c11.81,7.03,24.42,10.77,38.29,9.24c11.98-1.32,22.48-6.04,30.78-14.78c13.53-14.22,18.03-31.03,13.14-50.18
			c-1.52-5.95-4.13-11.47-6.77-16.98c-9.43-19.64-18.79-39.31-28.23-58.94c-7.05-14.67-14.16-29.32-21.28-43.95
			c-5.19-10.66-10.35-21.33-16.53-31.47c-2.77-4.54-5.55-9.07-9.39-12.83c-13.65-13.38-33.88-15.27-49.82-4.7
			c-7.32,4.86-12.62,11.48-16.58,19.2c-6.23,12.15-12.38,24.33-18.44,36.56c-11.85,23.92-23.67,47.86-35.41,71.83
			c-6.07,12.4-11.78,24.96-16.49,37.97c-2.88,7.96-4.03,16.1-2.89,24.49c1.56,11.52,6.5,21.43,14.94,29.43
			c12.55,11.88,27.59,16.35,44.62,14.19c9.45-1.19,17.92-5.05,25.84-10.21c6.48-4.23,12.29-9.3,18.08-14.4
			C291.51,457.07,294.37,454.58,297.34,451.97z M395.96,514.14c0,28.33,0,56.57,0,84.71c1.82,0,3.57-0.11,5.31,0.02
			c3.8,0.29,7.49,0.35,10.2-2.93c0.32,0.18,0.53,0.29,0.74,0.41c12.01,6.97,26.2,4.54,35.21-6.01c9.47-11.1,9.64-28.48,0.41-39.85
			c-4.86-5.99-11.06-9.44-18.81-9.88c-6.02-0.34-11.72,1.08-17.25,3.34c-0.39,0.16-0.79,0.29-1.35,0.5c0-10.22,0-20.24,0-30.31
			C405.54,514.14,400.8,514.14,395.96,514.14z M286.75,595.86c0.6,0.33,1.06,0.58,1.51,0.83c11.85,6.34,25.2,4.23,33.96-5.59
			c7.48-8.39,9.5-18.29,6.91-29.06c-4.59-19.11-27.14-28.43-42.81-17.22c-0.18,0.13-0.4,0.18-0.75,0.33c0-10.43,0-20.72,0-31.05
			c-4.68,0-9.26,0-13.86,0c0,28.39,0,56.72,0,84.8c2.04,0,3.99-0.1,5.92,0.02C281.1,599.15,284.4,599.05,286.75,595.86z
			 M183.13,595.57c1.4,2.04,2.48,2.8,4.79,3.29c3.08,0.65,6.11,0.14,9.14-0.46c0.98-0.19,1.23-0.61,1.23-1.59
			c-0.03-18.26-0.02-36.52-0.02-54.78c0-0.39,0-0.77,0-1.08c-1.24,0.16-2.38,0.42-3.52,0.43c-1.43,0.02-2.87-0.12-4.3-0.26
			c-3.19-0.32-5.73,0.68-7.42,3.52c-0.03,0.06-0.14,0.07,0,0c-1.94-1.05-3.66-2.3-5.59-2.97c-11.01-3.85-20.84-1.24-29.09,6.51
			c-10.41,9.78-11.98,27.43-3.73,39.43c6.81,9.9,16.3,14.11,28.29,12.05C176.57,599.05,179.92,597.55,183.13,595.57z M388.42,598.55
			c0-0.51,0-0.94,0-1.37c0.01-3.8,0.05-7.59,0.03-11.39c-0.06-8.67-0.03-17.34-0.28-26c-0.14-4.92-1.75-9.45-5.39-12.95
			c-6.02-5.79-17.09-9.58-27.36-4.79c-1.82,0.85-3.56,1.88-5.41,2.87c-0.89-2.26-2.64-3.44-5-3.72c-2.97-0.36-5.87,0.17-8.76,0.79
			c0,18.87,0,37.67,0,56.5c4.82,0,9.56,0,14.44,0c0-0.53,0-1,0-1.47c0-8.03-0.01-16.06,0-24.1c0-3.43,0.07-6.87,0.07-10.3
			c0-2.62,0.96-4.67,3.1-6.26c3.75-2.79,7.84-3.51,12.35-2.48c3.98,0.9,6.23,3.37,6.88,7.33c0.25,1.53,0.43,3.09,0.44,4.64
			c0.05,10.43,0.05,20.86,0.06,31.29c0,0.46,0,0.93,0,1.42C378.59,598.55,383.45,598.55,388.42,598.55z M245.72,598.54
			c0-0.62,0-1.1,0-1.58c0-9.15,0-18.3,0-27.45c0-2.04-0.01-4.08,0.05-6.11c0.17-5.5,2.69-8.51,8.09-9.26
			c2.83-0.39,5.73-0.3,8.6-0.41c0.9-0.03,1.81-0.01,2.66-0.01c0.08-0.18,0.15-0.25,0.15-0.32c0.01-3.96,0.04-7.91,0-11.87
			c0-0.3-0.51-0.75-0.86-0.85c-3.54-1.06-7.13-1.09-10.59,0.18c-2.49,0.91-4.84,2.2-7.36,3.37c-1.68-2.17-4.13-3.28-7.06-3.16
			c-2.78,0.11-5.55,0.37-8.4,0.57c0,18.89,0,37.85,0,56.9C235.88,598.54,240.73,598.54,245.72,598.54z M221.65,598.64
			c0-19.07,0-38,0-56.94c-4.73,0-9.39,0-14.04,0c0,19.03,0,37.99,0,56.94C212.34,598.64,216.96,598.64,221.65,598.64z M204.7,523.86
			c0,5.62,4.45,10.04,10.05,10c5.45-0.04,9.92-4.5,9.94-9.91c0.01-5.53-4.54-10.14-10.01-10.12
			C209.23,513.85,204.7,518.4,204.7,523.86z"/>
		<path d="M297.34,451.97c-2.97,2.6-5.83,5.09-8.67,7.6c-5.79,5.1-11.6,10.17-18.08,14.4c-7.92,5.16-16.39,9.02-25.84,10.21
			c-17.03,2.15-32.07-2.31-44.62-14.19c-8.44-7.99-13.38-17.9-14.94-29.43c-1.14-8.39,0.01-16.53,2.89-24.49
			c4.71-13,10.41-25.57,16.49-37.97c11.74-23.97,23.56-47.91,35.41-71.83c6.06-12.23,12.21-24.41,18.44-36.56
			c3.96-7.72,9.26-14.34,16.58-19.2c15.94-10.57,36.17-8.67,49.82,4.7c3.83,3.76,6.62,8.29,9.39,12.83
			c6.18,10.14,11.34,20.81,16.53,31.47c7.13,14.64,14.23,29.28,21.28,43.95c9.44,19.63,18.8,39.3,28.23,58.94
			c2.65,5.51,5.25,11.03,6.77,16.98c4.89,19.15,0.39,35.95-13.14,50.18c-8.31,8.73-18.8,13.46-30.78,14.78
			c-13.86,1.52-26.47-2.22-38.29-9.24c-7.85-4.67-14.77-10.49-21.25-16.87C301.51,456.2,299.5,454.14,297.34,451.97z M307.72,440.17
			c0.06,0.12,0.08,0.2,0.12,0.26c7.61,8.95,16.11,16.87,26.36,22.75c7.31,4.2,15.07,6.97,23.64,6.75
			c12.69-0.32,22.78-5.59,29.91-16.18c3.91-5.81,5.9-12.3,5.91-19.3c0.02-6.28-1.54-12.28-4.17-17.94
			c-3.96-8.54-8.08-17.01-12.17-25.49c-8.47-17.58-16.92-35.16-25.45-52.71c-8.39-17.26-16.81-34.51-25.3-51.72
			c-3.09-6.27-6.56-12.36-10.88-17.88c-8.09-10.34-22.54-12.17-33.09-4.34c-4.57,3.4-7.84,7.87-10.39,12.84
			c-5.05,9.83-9.96,19.74-14.86,29.65c-13.92,28.15-27.82,56.31-41.69,84.49c-4.72,9.6-9.14,19.32-12.71,29.43
			c-2.18,6.19-3.47,12.46-2.49,19.03c2.89,19.35,21.43,33.05,41.45,29.77c8.97-1.47,16.93-5.3,24.25-10.59
			c6.96-5.04,12.98-11.11,18.9-17.29c1.24-1.29,1.26-1.57,0.18-3.01c-1.14-1.54-2.33-3.05-3.48-4.58
			c-6.89-9.19-13.31-18.67-18.12-29.14c-4.57-9.95-7.77-20.27-8.08-31.32c-0.34-12.47,3.96-23.07,13.41-31.27
			c10.85-9.42,23.55-12.35,37.48-9.31c18.58,4.05,31.02,19.33,31.65,38.32c0.21,6.43-0.85,12.64-2.57,18.79
			c-3.3,11.82-8.91,22.54-15.71,32.66C315.91,428.65,311.79,434.35,307.72,440.17z M296.85,427.81c0.22-0.25,0.36-0.39,0.47-0.54
			c3.77-5.41,7.68-10.72,11.26-16.24c6.53-10.06,11.48-20.81,13.33-32.8c0.89-5.8,0.46-11.39-2.14-16.71
			c-4.97-10.14-16.33-15.61-27.57-13.32c-5.57,1.14-10.59,3.35-14.49,7.6c-5.41,5.88-6.9,13-6.15,20.7
			c0.68,7.02,2.91,13.64,5.71,20.07c3.96,9.05,9.36,17.25,15.14,25.21C293.85,423.78,295.33,425.75,296.85,427.81z"/>
		<path d="M395.96,514.14c4.84,0,9.58,0,14.45,0c0,10.08,0,20.09,0,30.31c0.57-0.21,0.97-0.35,1.35-0.5
			c5.53-2.26,11.23-3.68,17.25-3.34c7.75,0.44,13.95,3.89,18.81,9.88c9.23,11.37,9.06,28.76-0.41,39.85
			c-9,10.55-23.2,12.98-35.21,6.01c-0.2-0.12-0.41-0.23-0.74-0.41c-2.72,3.28-6.4,3.23-10.2,2.93c-1.74-0.13-3.5-0.02-5.31-0.02
			C395.96,570.71,395.96,542.46,395.96,514.14z M410.52,571.25c-0.04,0-0.07,0-0.11,0c0,1.84,0.08,3.68-0.02,5.5
			c-0.16,2.76,0.85,4.9,3.08,6.48c3.59,2.55,7.6,3.37,11.93,2.83c14.81-1.84,16.91-17.2,11.63-25.05
			c-3.96-5.89-9.84-7.76-16.62-6.95c-6.49,0.78-9.72,4.52-9.89,11.08C410.48,567.18,410.52,569.22,410.52,571.25z"/>
		<path d="M286.75,595.86c-2.35,3.19-5.65,3.29-9.11,3.06c-1.93-0.13-3.88-0.02-5.92-0.02c0-28.09,0-56.41,0-84.8
			c4.6,0,9.17,0,13.86,0c0,10.33,0,20.62,0,31.05c0.35-0.15,0.58-0.2,0.75-0.33c15.67-11.21,38.22-1.89,42.81,17.22
			c2.58,10.77,0.57,20.67-6.91,29.06c-8.76,9.82-22.11,11.93-33.96,5.59C287.81,596.45,287.36,596.19,286.75,595.86z M285.58,570.7
			c0.07,0.01,0.15,0.02,0.22,0.02c0,2.03,0.09,4.07-0.02,6.1c-0.15,2.84,1.05,4.92,3.32,6.49c2.38,1.65,5.04,2.56,7.91,2.86
			c5.92,0.62,13.97-1.77,17.02-9.87c2.52-6.67,0.63-14.61-4.47-18.7c-5.51-4.42-13.79-4.96-19.8-1.29c-1.68,1.03-2.96,2.45-3.22,4.4
			C286.1,564.03,285.89,567.37,285.58,570.7z"/>
		<path d="M183.13,595.57c-3.21,1.97-6.56,3.47-10.21,4.1c-12,2.06-21.49-2.14-28.29-12.05c-8.25-12.01-6.68-29.66,3.73-39.43
			c8.25-7.75,18.08-10.36,29.09-6.51c1.92,0.67,3.65,1.92,5.59,2.97c-0.14,0.06-0.03,0.05,0,0c1.69-2.83,4.23-3.83,7.42-3.52
			c1.43,0.14,2.87,0.28,4.3,0.26c1.14-0.02,2.28-0.27,3.52-0.43c0,0.31,0,0.69,0,1.08c0,18.26-0.01,36.52,0.02,54.78
			c0,0.98-0.25,1.4-1.23,1.59c-3.03,0.59-6.06,1.11-9.14,0.46C185.61,598.37,184.52,597.61,183.13,595.57z M183.88,569.63
			c-0.08-0.01-0.17-0.01-0.25-0.02c0-2,0.06-4-0.01-5.99c-0.14-3.44-1.48-6.16-4.74-7.72c-3.47-1.66-7.07-2.52-10.92-1.76
			c-5.72,1.12-10.28,3.88-12.33,9.6c-2.16,6.02-1.71,11.84,2.51,16.93c4.63,5.58,13.47,7.21,20.43,4.01
			c2.57-1.18,4.2-3.12,4.57-5.87C183.53,575.77,183.64,572.69,183.88,569.63z"/>
		<path d="M388.42,598.55c-4.97,0-9.83,0-14.83,0c0-0.49,0-0.96,0-1.42c-0.01-10.43-0.01-20.86-0.06-31.29
			c-0.01-1.55-0.18-3.11-0.44-4.64c-0.65-3.96-2.91-6.42-6.88-7.33c-4.51-1.02-8.6-0.3-12.35,2.48c-2.15,1.59-3.1,3.65-3.1,6.26
			c0,3.43-0.06,6.87-0.07,10.3c-0.01,8.03,0,16.06,0,24.1c0,0.47,0,0.94,0,1.47c-4.88,0-9.62,0-14.44,0c0-18.83,0-37.63,0-56.5
			c2.9-0.63,5.79-1.15,8.76-0.79c2.36,0.29,4.11,1.46,5,3.72c1.85-0.99,3.59-2.02,5.41-2.87c10.27-4.79,21.34-1,27.36,4.79
			c3.64,3.51,5.25,8.04,5.39,12.95c0.25,8.66,0.22,17.33,0.28,26c0.03,3.8-0.02,7.59-0.03,11.39
			C388.42,597.61,388.42,598.04,388.42,598.55z"/>
		<path d="M245.72,598.54c-4.99,0-9.84,0-14.73,0c0-19.04,0-38.01,0-56.9c2.85-0.2,5.62-0.46,8.4-0.57
			c2.93-0.11,5.38,0.99,7.06,3.16c2.52-1.17,4.87-2.46,7.36-3.37c3.46-1.27,7.05-1.23,10.59-0.18c0.35,0.11,0.86,0.56,0.86,0.85
			c0.05,3.95,0.02,7.91,0,11.87c0,0.07-0.06,0.14-0.15,0.32c-0.85,0-1.76-0.03-2.66,0.01c-2.87,0.11-5.77,0.02-8.6,0.41
			c-5.41,0.75-7.93,3.76-8.09,9.26c-0.06,2.04-0.05,4.07-0.05,6.11c0,9.15,0,18.3,0,27.45
			C245.72,597.44,245.72,597.92,245.72,598.54z"/>
		<path d="M221.65,598.64c-4.69,0-9.32,0-14.04,0c0-18.96,0-37.91,0-56.94c4.66,0,9.31,0,14.04,0
			C221.65,560.64,221.65,579.57,221.65,598.64z"/>
		<path d="M204.7,523.86c0-5.45,4.53-10,9.98-10.02c5.47-0.02,10.02,4.59,10.01,10.12c-0.01,5.41-4.49,9.88-9.94,9.91
			C209.15,533.9,204.71,529.48,204.7,523.86z"/>
		<path class="st0" d="M307.72,440.17c4.07-5.82,8.19-11.52,12.11-17.35c6.81-10.12,12.41-20.84,15.71-32.66
			c1.72-6.15,2.79-12.36,2.57-18.79c-0.64-18.99-13.07-34.27-31.65-38.32c-13.93-3.03-26.63-0.1-37.48,9.31
			c-9.45,8.2-13.75,18.8-13.41,31.27c0.3,11.05,3.51,21.37,8.08,31.32c4.81,10.47,11.23,19.95,18.12,29.14
			c1.15,1.53,2.33,3.04,3.48,4.58c1.08,1.45,1.06,1.72-0.18,3.01c-5.92,6.17-11.93,12.25-18.9,17.29
			c-7.32,5.29-15.28,9.12-24.25,10.59c-20.02,3.28-38.57-10.42-41.45-29.77c-0.98-6.58,0.31-12.84,2.49-19.03
			c3.56-10.11,7.98-19.83,12.71-29.43c13.87-28.17,27.77-56.33,41.69-84.49c4.9-9.91,9.81-19.82,14.86-29.65
			c2.55-4.97,5.82-9.44,10.39-12.84c10.55-7.83,25-6,33.09,4.34c4.32,5.52,7.79,11.61,10.88,17.88
			c8.49,17.21,16.91,34.46,25.3,51.72c8.52,17.55,16.98,35.13,25.45,52.71c4.09,8.48,8.2,16.95,12.17,25.49
			c2.63,5.67,4.19,11.66,4.17,17.94c-0.02,7-2.01,13.49-5.91,19.3c-7.13,10.59-17.22,15.86-29.91,16.18
			c-8.57,0.22-16.33-2.55-23.64-6.75c-10.24-5.89-18.75-13.81-26.36-22.75C307.79,440.37,307.77,440.28,307.72,440.17z"/>
		<path class="st0" d="M296.85,427.81c-1.52-2.05-3-4.03-4.45-6.02c-5.78-7.96-11.18-16.16-15.14-25.21
			c-2.81-6.43-5.03-13.05-5.71-20.07c-0.75-7.7,0.74-14.82,6.15-20.7c3.91-4.25,8.92-6.47,14.49-7.6
			c11.25-2.29,22.6,3.17,27.57,13.32c2.61,5.32,3.04,10.91,2.14,16.71c-1.85,12-6.8,22.74-13.33,32.8
			c-3.59,5.52-7.5,10.84-11.26,16.24C297.21,427.42,297.07,427.55,296.85,427.81z"/>
		<path class="st0" d="M410.52,571.25c0-2.04-0.04-4.07,0.01-6.11c0.17-6.56,3.4-10.3,9.89-11.08c6.78-0.81,12.66,1.06,16.62,6.95
			c5.28,7.86,3.18,23.21-11.63,25.05c-4.33,0.54-8.33-0.28-11.93-2.83c-2.24-1.59-3.24-3.73-3.08-6.48c0.1-1.83,0.02-3.67,0.02-5.5
			C410.45,571.25,410.49,571.25,410.52,571.25z"/>
		<path class="st0" d="M285.58,570.7c0.31-3.33,0.52-6.67,0.96-9.98c0.26-1.95,1.55-3.38,3.22-4.4c6.01-3.68,14.29-3.14,19.8,1.29
			c5.1,4.09,6.98,12.03,4.47,18.7c-3.06,8.1-11.1,10.49-17.02,9.87c-2.87-0.3-5.52-1.21-7.91-2.86c-2.27-1.57-3.47-3.64-3.32-6.49
			c0.11-2.03,0.02-4.07,0.02-6.1C285.73,570.72,285.66,570.71,285.58,570.7z"/>
		<path class="st0" d="M183.88,569.63c-0.24,3.06-0.35,6.14-0.76,9.17c-0.37,2.76-1.99,4.69-4.57,5.87
			c-6.96,3.2-15.81,1.56-20.43-4.01c-4.22-5.09-4.67-10.91-2.51-16.93c2.05-5.71,6.61-8.48,12.33-9.6
			c3.84-0.75,7.44,0.11,10.92,1.76c3.26,1.56,4.61,4.28,4.74,7.72c0.08,1.99,0.01,4,0.01,5.99
			C183.72,569.62,183.8,569.63,183.88,569.63z"/>
	</g>
</g>
</svg>
