<?xml version="1.0" encoding="utf-8"?>
<!-- Generator: Adobe Illustrator 23.1.1, SVG Export Plug-In . SVG Version: 6.00 Build 0)  -->
<svg version="1.1" id="Camada_1" xmlns="http://www.w3.org/2000/svg" xmlns:xlink="http://www.w3.org/1999/xlink" x="0px" y="0px"
	 viewBox="0 0 595.28 841.89" style="enable-background:new 0 0 595.28 841.89;" xml:space="preserve">
<style type="text/css">
	.st0{fill:#FFFFFF;}
</style>
<g>
	<g>
		<path class="st0" d="M0,576.69c0-103.6,0-207.2,0-310.8c198.48,0,396.96,0,595.44,0c0,103.6,0,207.2,0,310.8
			C396.96,576.69,198.48,576.69,0,576.69z M476.42,419.6c-0.11-0.08-0.19-0.16-0.3-0.2c-3.89-1.65-4.92-3.33-4.51-7.51
			c0.64-6.48,1.3-12.96,1.98-19.44c0.36-3.42,1.55-4.42,4.99-4.4c5.56,0.04,11.11,0.05,16.67,0.04c2.23,0,4.48,0.03,6.58-0.98
			c3.36-1.62,4.39-5.05,2.22-8.07c-0.94-1.31-2.17-2.47-3.46-3.45c-36.14-27.3-72.31-54.58-108.47-81.85
			c-3.39-2.55-5.87-2.52-9.23,0.06c-8.7,6.66-17.32,13.42-26.12,19.94c-26.49,19.64-53.06,39.18-79.59,58.78
			c-3.28,2.42-6.57,4.83-9.74,7.39c-1.99,1.6-2.59,3.77-1.73,6.25c0.84,2.43,2.61,3.74,5.12,3.83c4.27,0.15,8.55,0.18,12.82,0.18
			c3.68,0,7.35-0.13,11.03-0.14c2.97,0,4.38,1.23,4.65,4.18c0.33,3.54,0.42,7.1,0.77,10.64c1.12,11.29,2.32,22.58,3.48,33.87
			c1.55,15.15,3.13,30.29,4.64,45.44c1.4,14.12,2.73,28.24,4.07,42.37c0.27,2.82,0.73,5.56,2.63,7.82c2.41,2.87,5.59,3.99,9.25,4
			c10.04,0.02,20.08,0.03,30.11,0.09c4.52,0.03,8.92,0.79,13.07,2.63c8.56,3.79,13.89,10.5,17.13,19.08
			c0.7,1.85,1.32,3.74,2.02,5.73c0.82-2.36,1.5-4.57,2.34-6.72c2.18-5.54,5.19-10.53,9.99-14.25c5.53-4.29,11.98-6.01,18.79-6.3
			c7.27-0.3,14.55-0.14,21.83-0.27c3.63-0.07,7.31-0.01,10.87-0.58c4.84-0.78,8.52-3.38,9.88-8.42c0.31-1.15,0.38-2.36,0.5-3.55
			c0.93-9.18,1.85-18.37,2.77-27.56c0.76-7.6,1.48-15.19,2.25-22.79c0.84-8.31,1.73-16.61,2.54-24.93c0.78-7.99,1.45-16,2.21-23.99
			c0.39-4.04,1.8-5.63,5.78-6.75C476.28,419.71,476.33,419.65,476.42,419.6z M183.89,408.54c-0.02,0.37-0.05,0.6-0.05,0.84
			c0,16.48,0,32.96,0,49.44c0,5.68,0.04,11.36-0.02,17.04c-0.04,3.69-1.51,5.33-5.18,5.53c-3.34,0.18-6.72,0.29-10.05,0
			c-6.54-0.58-11.05-4.08-13.29-10.3c-1.35-3.76-1.84-7.71-1.87-11.67c-0.1-13.8-0.05-27.6-0.08-41.39c0-2.28,0.06-4.57-0.15-6.83
			c-0.18-1.92-1.22-2.77-3.14-2.76c-5.56,0.03-11.11,0.09-16.67,0.22c-2.18,0.05-3.75,1.83-3.76,4c-0.02,4.08-0.05,8.16-0.04,12.24
			c0.05,12.08,0.07,24.15,0.23,36.23c0.06,4.63,0.2,9.29,0.75,13.88c1.25,10.34,6.7,17.77,16.26,22.04
			c6.76,3.02,13.99,3.84,21.27,4.23c12.49,0.67,24.71-1.15,36.73-4.46c2.4-0.66,3.03-1.52,3.03-4.03c0-26.52,0.01-53.04-0.01-79.56
			c0-1.54-0.17-3.09-0.26-4.67C199.64,408.54,191.82,408.54,183.89,408.54z M120.72,500.79c0-0.32,0-0.59,0-0.86
			c0.07-6.44,0.15-12.87,0.2-19.31c0.05-7.6,0.17-15.2,0.05-22.79c-0.11-7.23-0.23-14.47-0.79-21.67
			c-0.59-7.58-3.79-14.06-9.67-19.05c-5.32-4.52-11.65-6.71-18.45-7.64c-15.2-2.08-30.21-1.03-45.01,3.05
			c-3.28,0.9-4.33,2.27-4.32,5.66c0.01,6.24,0.03,12.48,0.04,18.71c0,19.52-0.01,39.03,0.02,58.55c0,1.69,0.23,3.38,0.34,5.04
			c7.97,0,15.7,0,23.56,0c0-0.59,0-1.1,0-1.61c0-17.64,0-35.27,0-52.91c0-3.68-0.04-7.36,0.04-11.04c0.08-3.76,1.18-5.13,4.74-6.24
			c11.1-3.46,21.73,2,24.6,12.91c0.85,3.23,1.03,6.71,1.06,10.08c0.1,15.88,0.05,31.75,0.05,47.63c0,0.47,0,0.94,0,1.47
			C105.05,500.79,112.83,500.79,120.72,500.79z M254.31,461c1.87,3.98,3.86,8.25,5.88,12.5c3.81,8.05,7.64,16.09,11.45,24.13
			c0.87,1.83,2.19,2.74,4.34,2.72c7.28-0.07,14.56-0.01,21.84,0.01c0.43,0,0.86,0,1.47,0c-0.65-1.4-1.18-2.69-1.82-3.92
			c-5.46-10.48-10.94-20.96-16.42-31.43c-1.6-3.05-1.38-4.1,1.26-6.26c2.95-2.4,5.41-5.21,7.11-8.63c2.6-5.23,3.01-10.76,2.46-16.48
			c-1-10.33-6.19-17.48-15.83-21.37c-8.11-3.27-16.63-4.4-25.25-4.2c-9.18,0.21-18.34,1.03-27.51,1.62
			c-1.66,0.11-3.3,0.41-4.91,0.62c0,30.17,0,60.19,0,90.19c7.82,0,15.56,0,23.36,0c0-0.61,0-1.13,0-1.64
			c0.03-21.64,0.05-43.27,0.08-64.91c0-2.32-0.03-4.68,1.47-6.65c0.41-0.54,1.04-1.18,1.63-1.26c2.84-0.37,5.72-0.86,8.56-0.74
			c6.47,0.27,12.24,5.17,13.32,11.36c1.13,6.46-0.21,12.49-4.7,17.42C259.79,456.6,256.99,458.65,254.31,461z M554.04,467.37
			c0-6.96-0.17-13.93,0.06-20.88c0.17-5.3-0.69-10.42-1.88-15.52c-2.46-10.58-8.82-17.68-19.18-21.13
			c-5.63-1.87-11.43-2.68-17.33-2.78c-7.19-0.12-14.28,0.83-21.26,2.46c-2.43,0.56-4.81,1.46-7.09,2.47c-2,0.9-2.94,2.75-2.72,4.93
			c0.35,3.61,1.93,6.81,3.65,9.94c0.33,0.6,0.73,0.75,1.46,0.59c3.83-0.82,7.65-1.68,11.51-2.3c6.36-1.03,12.73-1.11,19.02,0.59
			c5.23,1.41,9.23,4.3,11.25,9.51c1.76,4.54,0,7.51-4.84,8.22c-0.16,0.02-0.32,0.04-0.48,0.05c-4.39,0.23-8.78,0.43-13.17,0.71
			c-5.75,0.37-11.49,0.83-17.02,2.62c-7.54,2.44-13.23,6.99-16.13,14.57c-1.91,4.99-2.01,10.16-1.32,15.37
			c1.19,8.98,5.66,15.67,14,19.51c7.32,3.37,15.17,4.37,23.1,4.73c12.67,0.57,24.98-1.74,37.14-5.04c1.05-0.28,1.25-0.77,1.24-1.74
			C554.03,485.29,554.04,476.33,554.04,467.37z"/>
		<path d="M476.42,419.6c-0.08,0.05-0.14,0.11-0.2,0.13c-3.98,1.13-5.39,2.71-5.78,6.75c-0.77,8-1.44,16-2.21,23.99
			c-0.81,8.31-1.7,16.62-2.54,24.93c-0.76,7.59-1.49,15.19-2.25,22.79c-0.91,9.19-1.84,18.37-2.77,27.56
			c-0.12,1.19-0.19,2.41-0.5,3.55c-1.35,5.04-5.03,7.65-9.88,8.42c-3.56,0.57-7.24,0.52-10.87,0.58
			c-7.28,0.13-14.56-0.03-21.83,0.27c-6.81,0.28-13.26,2.01-18.79,6.3c-4.8,3.72-7.8,8.71-9.99,14.25
			c-0.85,2.15-1.53,4.36-2.34,6.72c-0.7-2-1.32-3.88-2.02-5.73c-3.24-8.57-8.57-15.29-17.13-19.08c-4.15-1.84-8.55-2.6-13.07-2.63
			c-10.04-0.06-20.07-0.07-30.11-0.09c-3.66-0.01-6.83-1.12-9.25-4c-1.9-2.26-2.36-4.99-2.63-7.82
			c-1.34-14.12-2.67-28.25-4.07-42.37c-1.51-15.15-3.08-30.29-4.64-45.44c-1.16-11.29-2.36-22.58-3.48-33.87
			c-0.35-3.54-0.44-7.1-0.77-10.64c-0.28-2.95-1.68-4.18-4.65-4.18c-3.68,0-7.35,0.14-11.03,0.14c-4.27,0-8.55-0.03-12.82-0.18
			c-2.51-0.09-4.27-1.4-5.12-3.83c-0.86-2.49-0.26-4.66,1.73-6.25c3.18-2.55,6.46-4.97,9.74-7.39
			c26.53-19.59,53.1-39.14,79.59-58.78c8.8-6.52,17.42-13.28,26.12-19.94c3.37-2.58,5.84-2.61,9.23-0.06
			c36.17,27.27,72.33,54.55,108.47,81.85c1.29,0.97,2.52,2.14,3.46,3.45c2.17,3.02,1.14,6.45-2.22,8.07
			c-2.1,1.01-4.34,0.98-6.58,0.98c-5.56,0.01-11.11,0-16.67-0.04c-3.43-0.02-4.63,0.98-4.99,4.4c-0.68,6.48-1.33,12.96-1.98,19.44
			c-0.42,4.18,0.61,5.87,4.51,7.51C476.22,419.44,476.31,419.53,476.42,419.6z M437.12,421.32c-0.28-0.48-0.5-0.89-0.75-1.3
			c-3.43-5.67-7.76-10.56-12.97-14.63c-9.85-7.71-21.03-12.04-33.5-13.06c-8.14-0.66-16.12,0.12-23.78,3.05
			c-13.86,5.3-24.42,14.62-32.3,27.05c-6.31,9.95-9.93,20.78-9.7,32.66c0.08,4,0.57,8.05,1.37,11.98
			c1.87,9.18,5.58,17.55,12.08,24.47c1.59,1.7,3.44,3.15,5.18,4.72c5.37-4.83,8.19-10.48,8.1-17.49c-0.05-3.87-0.13-7.74-0.04-11.61
			c0.2-8.94,0.52-17.88,0.75-26.83c0.1-3.96,0.35-7.88,1.59-11.69c4.89-15.05,21.25-24.93,37.01-21.68
			c9.45,1.95,17.44,6.41,24.12,13.32c1.66,1.72,3.41,3.38,5.3,4.83c2.34,1.79,5.04,2.52,8.01,1.83
			C431.36,426.08,434.25,423.79,437.12,421.32z M430.04,495.55c2.47-1.71,4.65-3.73,6.56-6.04c7.19-8.67,10.27-18.88,10.96-29.91
			c0.36-5.76-0.02-11.49-1.17-17.16c-0.34-1.69-0.76-3.36-1.17-5.16c-0.33,0.24-0.46,0.32-0.58,0.42
			c-6.2,5.23-12.37,10.49-18.6,15.69c-1.86,1.55-2.33,3.4-1.82,5.67c1.45,6.45,2.97,12.89,4.26,19.37
			c0.72,3.62,1.14,7.31,1.52,10.99C430.21,491.39,430.04,493.4,430.04,495.55z"/>
		<path d="M183.89,408.54c7.93,0,15.75,0,23.72,0c0.09,1.59,0.26,3.13,0.26,4.67c0.02,26.52,0.01,53.04,0.01,79.56
			c0,2.52-0.63,3.37-3.03,4.03c-12.02,3.31-24.24,5.13-36.73,4.46c-7.28-0.39-14.51-1.21-21.27-4.23
			c-9.56-4.28-15.02-11.7-16.26-22.04c-0.55-4.59-0.69-9.25-0.75-13.88c-0.16-12.07-0.17-24.15-0.23-36.23
			c-0.02-4.08,0.02-8.16,0.04-12.24c0.01-2.16,1.58-3.95,3.76-4c5.56-0.13,11.11-0.2,16.67-0.22c1.92-0.01,2.96,0.84,3.14,2.76
			c0.21,2.26,0.15,4.55,0.15,6.83c0.02,13.8-0.02,27.6,0.08,41.39c0.03,3.96,0.52,7.91,1.87,11.67c2.24,6.22,6.74,9.72,13.29,10.3
			c3.33,0.29,6.71,0.18,10.05,0c3.67-0.2,5.15-1.84,5.18-5.53c0.06-5.68,0.02-11.36,0.02-17.04c0-16.48,0-32.96,0-49.44
			C183.84,409.15,183.87,408.91,183.89,408.54z"/>
		<path d="M120.72,500.79c-7.89,0-15.67,0-23.56,0c0-0.53,0-1,0-1.47c0-15.88,0.06-31.75-0.05-47.63
			c-0.02-3.37-0.21-6.85-1.06-10.08c-2.87-10.91-13.5-16.36-24.6-12.91c-3.56,1.11-4.66,2.48-4.74,6.24
			c-0.08,3.68-0.04,7.36-0.04,11.04c0,17.64,0,35.27,0,52.91c0,0.51,0,1.02,0,1.61c-7.86,0-15.6,0-23.56,0
			c-0.12-1.66-0.34-3.35-0.34-5.04c-0.02-19.52-0.01-39.03-0.02-58.55c0-6.24-0.03-12.48-0.04-18.71c0-3.39,1.05-4.76,4.32-5.66
			c14.79-4.08,29.8-5.13,45.01-3.05c6.8,0.93,13.13,3.13,18.45,7.64c5.88,4.99,9.09,11.47,9.67,19.05
			c0.56,7.2,0.68,14.45,0.79,21.67c0.11,7.6,0,15.19-0.05,22.79c-0.04,6.44-0.13,12.87-0.2,19.31
			C120.72,500.2,120.72,500.47,120.72,500.79z"/>
		<path d="M254.31,461c2.68-2.36,5.48-4.4,7.78-6.92c4.49-4.93,5.83-10.96,4.7-17.42c-1.08-6.18-6.85-11.09-13.32-11.36
			c-2.84-0.12-5.72,0.38-8.56,0.74c-0.59,0.08-1.22,0.72-1.63,1.26c-1.5,1.97-1.47,4.33-1.47,6.65
			c-0.03,21.64-0.06,43.27-0.08,64.91c0,0.52,0,1.04,0,1.64c-7.79,0-15.53,0-23.36,0c0-30,0-60.02,0-90.19
			c1.61-0.21,3.26-0.51,4.91-0.62c9.17-0.59,18.33-1.41,27.51-1.62c8.62-0.2,17.15,0.93,25.25,4.2
			c9.65,3.89,14.84,11.04,15.83,21.37c0.55,5.72,0.15,11.25-2.46,16.48c-1.71,3.42-4.17,6.23-7.11,8.63
			c-2.65,2.16-2.86,3.2-1.26,6.26c5.48,10.47,10.96,20.95,16.42,31.43c0.64,1.23,1.17,2.51,1.82,3.92c-0.61,0-1.04,0-1.47,0
			c-7.28-0.01-14.56-0.08-21.84-0.01c-2.15,0.02-3.47-0.89-4.34-2.72c-3.82-8.04-7.64-16.08-11.45-24.13
			C258.17,469.25,256.18,464.99,254.31,461z"/>
		<path d="M554.04,467.37c0,8.96-0.01,17.92,0.02,26.88c0,0.97-0.19,1.46-1.24,1.74c-12.17,3.3-24.47,5.61-37.14,5.04
			c-7.93-0.36-15.78-1.37-23.1-4.73c-8.34-3.84-12.81-10.53-14-19.51c-0.69-5.21-0.59-10.38,1.32-15.37
			c2.9-7.58,8.6-12.13,16.13-14.57c5.52-1.79,11.27-2.25,17.02-2.62c4.39-0.28,8.78-0.47,13.17-0.71c0.16-0.01,0.32-0.02,0.48-0.05
			c4.84-0.71,6.61-3.68,4.84-8.22c-2.02-5.21-6.02-8.1-11.25-9.51c-6.29-1.7-12.66-1.62-19.02-0.59c-3.86,0.63-7.68,1.48-11.51,2.3
			c-0.73,0.16-1.13,0-1.46-0.59c-1.72-3.13-3.29-6.33-3.65-9.94c-0.21-2.18,0.72-4.03,2.72-4.93c2.28-1.02,4.66-1.91,7.09-2.47
			c6.98-1.63,14.07-2.58,21.26-2.46c5.9,0.1,11.7,0.9,17.33,2.78c10.36,3.45,16.72,10.55,19.18,21.13
			c1.19,5.09,2.05,10.21,1.88,15.52C553.87,453.44,554.04,460.41,554.04,467.37z M532.08,470.02c0.08,0,0.15,0,0.23,0
			c0-2.68,0.04-5.35-0.01-8.03c-0.04-2-0.86-3.72-2.28-5.11c-0.43-0.42-1.07-0.82-1.63-0.86c-3.62-0.23-7.25-0.5-10.88-0.47
			c-4.19,0.04-8.21,1-11.95,2.99c-5.23,2.78-7.87,7.02-7.56,13.03c0.29,5.78,3.59,10.24,8.93,11.91c0.87,0.27,1.77,0.47,2.66,0.67
			c5.97,1.35,11.99,1.74,18.04,0.64c3.01-0.55,4.29-2,4.41-5.07C532.18,476.49,532.08,473.25,532.08,470.02z"/>
		<path class="st0" d="M437.12,421.32c-2.86,2.47-5.76,4.76-9.51,5.63c-2.97,0.69-5.67-0.04-8.01-1.83
			c-1.89-1.45-3.64-3.11-5.3-4.83c-6.69-6.92-14.67-11.38-24.12-13.32c-15.76-3.25-32.12,6.63-37.01,21.68
			c-1.24,3.81-1.49,7.73-1.59,11.69c-0.22,8.94-0.55,17.88-0.75,26.83c-0.09,3.87,0,7.74,0.04,11.61c0.09,7-2.73,12.66-8.1,17.49
			c-1.74-1.57-3.59-3.02-5.18-4.72c-6.5-6.92-10.21-15.29-12.08-24.47c-0.8-3.93-1.29-7.97-1.37-11.98
			c-0.24-11.88,3.39-22.71,9.7-32.66c7.88-12.43,18.45-21.75,32.3-27.05c7.66-2.93,15.63-3.72,23.78-3.05
			c12.47,1.01,23.65,5.35,33.5,13.06c5.21,4.08,9.54,8.96,12.97,14.63C436.62,420.42,436.84,420.84,437.12,421.32z"/>
		<path class="st0" d="M430.04,495.55c0-2.15,0.17-4.16-0.04-6.13c-0.38-3.68-0.8-7.37-1.52-10.99c-1.29-6.48-2.81-12.92-4.26-19.37
			c-0.51-2.27-0.04-4.12,1.82-5.67c6.23-5.19,12.4-10.45,18.6-15.69c0.12-0.1,0.25-0.19,0.58-0.42c0.41,1.8,0.83,3.47,1.17,5.16
			c1.15,5.67,1.54,11.4,1.17,17.16c-0.69,11.04-3.77,21.24-10.96,29.91C434.69,491.82,432.51,493.84,430.04,495.55z"/>
		<path class="st0" d="M532.08,470.02c0,3.23,0.1,6.47-0.03,9.7c-0.12,3.08-1.4,4.52-4.41,5.07c-6.05,1.1-12.07,0.71-18.04-0.64
			c-0.89-0.2-1.79-0.4-2.66-0.67c-5.35-1.67-8.64-6.13-8.93-11.91c-0.3-6.01,2.33-10.25,7.56-13.03c3.74-1.99,7.76-2.95,11.95-2.99
			c3.62-0.03,7.25,0.24,10.88,0.47c0.57,0.04,1.21,0.44,1.63,0.86c1.42,1.39,2.24,3.11,2.28,5.11c0.05,2.68,0.01,5.35,0.01,8.03
			C532.24,470.02,532.16,470.02,532.08,470.02z"/>
	</g>
</g>
</svg>
