<svg id="Camada_1" data-name="Camada 1" xmlns="http://www.w3.org/2000/svg" viewBox="0 0 416.14 507.39"><defs><style>.cls-1{fill:#fff;}.cls-2{fill:#ccc;}</style></defs><title>p-logo-original</title><path class="cls-1" d="M205.59,289.92c0-5.24,0-10.22,0-15.19,0-1.22.69-1.35,1.54-1.61,5.32-1.61,10.66-3.16,15.94-4.89,17.12-5.62,26.81-17.66,30.36-35.09a169.22,169.22,0,0,0,3.24-33.59c0-11.33-.06-22.67-.56-34-.5-11.53-1.86-23-5.83-34-5-13.76-14.75-21.17-29.32-22a74.64,74.64,0,0,0-14.65.33c-8.73,1.23-12.41,5.35-13.46,14.13a92.51,92.51,0,0,0-.7,10.91q-.06,114.45,0,228.9a101.9,101.9,0,0,0,1.09,14.05c.76,5.41,3.67,9.71,8.89,11.56,5.65,2,11.53,3.38,17.36,4.82,3.2.79,6.52,1.14,9.78,1.69.87.15,1.65.26,1.64,1.51,0,7.1,0,14.2,0,21.3a3.59,3.59,0,0,1-.19.81h-179v-23.3c3.64-.78,7.34-1.48,11-2.4s7.42-2,11.06-3.17c7.31-2.4,11.08-7.66,11.64-15.22.37-5,.68-9.93.68-14.89q.08-106.49,0-213a142,142,0,0,0-1.46-19c-.77-5.63-4.47-9.3-9.63-11.51-6.88-2.94-14.23-4.08-21.49-5.57-.58-.12-1.15-.26-1.79-.41V87.83h2.19c58.52,0,117-.16,175.55.08,23,.09,45.8,2.38,67.95,9.06,13.37,4,25.91,9.76,36.86,18.6,14.28,11.52,23.15,26.43,27.11,44.22,5.21,23.4,4.36,46.52-4.87,68.88-11.59,28.09-32.33,46.72-60.59,57.24a135.91,135.91,0,0,1-41.38,8c-14.75.68-29.41.11-43.93-2.81-1.62-.33-3.2-.8-4.94-1.23m-96-79.18c-4.7,0-9,.06-13.3,0-1.53,0-2,.47-1.88,1.94.35,3.69.61,7.4,1,11.08,0,.53.58,1,.88,1.51.51-.33,1.3-.56,1.46-1,.79-2.28,2.46-2.6,4.57-2.59,9.48.07,19,0,28.44.07a2.84,2.84,0,0,0,2.92-1.79,25.32,25.32,0,0,0,2.52-14.09c-.68-7.74-4.12-12.51-10.54-14a27,27,0,0,0-10-.45c-9.33,1.46-12.64,10.31-7,18,.26.36.5.73.94,1.35M118,278.29c1.42.45,2.41.16,2.43-1.38,0-2.56.32-5.2-.19-7.67-1.23-5.92-5.79-9.23-12-9.17-5.34.06-8.91,3.21-10.17,9.07a18.26,18.26,0,0,0-.49,3.74c-.07,7.43-.07,14.85-.09,22.28a8.38,8.38,0,0,0,.31,1.27c.78-.57,1.77-.92,1.83-1.4.36-2.6,2.11-2.89,4.19-2.89,6.37,0,12.74,0,19.11,0,2.32,0,4.64,0,7,0,1.64,0,3,.45,3.22,2.47.14,1.39,1,1.69,2.29,1.21V275.46c-1.65-.64-2.17.25-2.35,1.52-.26,1.88-1.2,2.72-3.18,2.71-9.29-.05-18.57,0-27.86,0a1.83,1.83,0,0,1-1.4-.74,4.07,4.07,0,0,1,2.62-5.71,24,24,0,0,1,11.22-.07c2.74.62,3.1,3,3.53,5.14m14.66-40.38a6.39,6.39,0,0,0,2.16-.06c.55-.18,1.33-1,1.28-1.41-.41-3.68-1-7.35-1.54-11-.08-.46-.59-1.13-1-1.18a1.59,1.59,0,0,0-1.3.82c-.6,2.13-2.13,2.39-4,2.38-6.76,0-13.52,0-20.29-.06-1.76,0-2.21.64-2,2.23.41,3.49.74,7,1.16,10.47a8.15,8.15,0,0,0,.61,1.71,7.4,7.4,0,0,0,1.78-1.23c.86-1.09,1.49-2.32,3.19-2.31,5.18,0,10.35,0,15.52,0a1.86,1.86,0,0,1,1.41.7c1.74,3.35.14,6-3.6,6q-9,0-18.1,0c-1.22,0-2.14.19-2,1.71.43,4.21.86,8.42,1.37,13.39a11.47,11.47,0,0,0,2.34-2,4.17,4.17,0,0,1,4.1-2.17q7.45.13,14.92,0c5.64-.11,8.61-3.66,7.34-9.19-.7-3-2.21-5.84-3.37-8.8M106,112.27c0,4.32.93,8.36,4.07,11.46,4.93,4.88,11,5.4,17.15,3.22,6.34-2.23,8.73-7.54,9.11-13.86.41-7-2.78-12.91-8.38-15.13-10-3.94-21.93.56-22,14.31m29.5,60.62c-.93.64-1.88.93-2,1.43-.49,1.91-1.7,2.19-3.42,2.18-11.21-.09-22.41-.07-33.62-.15-1.55,0-2.18.41-2,2,.37,3.63.6,7.27,1,10.89a5.37,5.37,0,0,0,.9,1.72c.56-.44,1.41-.76,1.65-1.34.75-1.81,2-2.39,3.89-2.37q14.22.09,28.45,0c1.64,0,2.69.46,3,2.17.22,1.33.92,1.76,2.21,1.19Zm-6.91-44.62c.67,1.95,1.2,3.23,1.54,4.56,1.53,6-.47,10.19-5.93,11.12a46.59,46.59,0,0,1-10.82.06,5.56,5.56,0,0,1-3.54-1.92,5.46,5.46,0,0,1-.81-3.65c0-.46,1.52-.84,2.38-1.18.48-.2,1-.19,1.53-.36a4.41,4.41,0,0,0-2.19-8.51,5.12,5.12,0,0,0-4.17,4.53,31.25,31.25,0,0,0-.49,7.29c.58,10.09,7.1,15.75,17.06,15,5.73-.45,10.31-2.83,12.21-8.56,2.07-6.21,1.19-12.06-3.5-16.94-.65-.68-1.86-.82-3.27-1.4m-21.29,44.5.56.6a13.15,13.15,0,0,0,2.1-1.81c.9-1.16,1.81-2.05,3.4-2,5.84,0,11.67,0,17.5,0,1.17,0,2.07.33,2.36,1.63s1.1,1.65,2.26,1.05V155.47l-.53-.42c-.54.51-1.4.93-1.57,1.55-.44,1.56-1.29,2.05-2.88,2-7.49-.09-15,0-22.47-.11-1.57,0-2.18.39-2,2,.47,4.07.85,8.15,1.26,12.23m-2.48-8.27c.07-3.33-2.07-5.82-5.09-5.93a5.45,5.45,0,0,0-5.62,5.63,5.58,5.58,0,0,0,5.33,6c3,0,5.3-2.39,5.38-5.68m-10,74.93a2.77,2.77,0,0,0,.4,1.31c2.39,2.63,4.79,5.25,7.34,7.72.66.64,1.64.19,1.43-1-.59-3.24-1.2-6.49-2-9.69a3.39,3.39,0,0,0-3.89-2.32,3.69,3.69,0,0,0-3.31,3.94"/><path class="cls-2" d="M109.6,210.74c-.44-.62-.68-1-.94-1.35-5.65-7.65-2.34-16.5,7-18a27,27,0,0,1,10,.45c6.42,1.45,9.86,6.22,10.54,14a25.32,25.32,0,0,1-2.52,14.09,2.84,2.84,0,0,1-2.92,1.79c-9.48-.07-19,0-28.44-.07-2.11,0-3.78.31-4.57,2.58-.16.45-1,.68-1.46,1-.3-.5-.83-1-.88-1.51-.38-3.68-.64-7.39-1-11.08-.14-1.47.35-2,1.88-1.94,4.3.09,8.6,0,13.3,0m12.64.09c2.65,0,5.3-.1,7.94,0,2.08.11,2.85-1.11,3.22-2.77a4,4,0,0,0-3.13-5.13,30.4,30.4,0,0,0-14.16-.28c-3.53.78-4.69,2.87-4.12,6.46.22,1.34.82,1.74,2.11,1.71,2.71-.08,5.42,0,8.14,0"/><path class="cls-2" d="M118,278.29c-.43-2.19-.79-4.52-3.53-5.14a24,24,0,0,0-11.22.07,4.07,4.07,0,0,0-2.62,5.71,1.83,1.83,0,0,0,1.4.74c9.29,0,18.57,0,27.86,0,2,0,2.92-.83,3.18-2.71.18-1.27.7-2.16,2.35-1.52v20.38c-1.29.48-2.15.18-2.29-1.21-.2-2-1.58-2.43-3.22-2.47-2.32,0-4.64,0-7,0-6.37,0-12.74,0-19.11,0-2.08,0-3.83.29-4.19,2.89-.06.48-1.05.83-1.83,1.4a8.38,8.38,0,0,1-.31-1.27c0-7.43,0-14.85.09-22.28a18.26,18.26,0,0,1,.49-3.74c1.26-5.86,4.83-9,10.17-9.07,6.19-.06,10.75,3.25,12,9.17.51,2.47.23,5.11.19,7.67,0,1.54-1,1.83-2.43,1.38"/><path class="cls-2" d="M132.69,237.91c1.16,3,2.67,5.78,3.37,8.8,1.27,5.52-1.7,9.08-7.34,9.19q-7.45.14-14.92,0a4.17,4.17,0,0,0-4.1,2.17,11.47,11.47,0,0,1-2.34,2c-.51-5-.94-9.18-1.37-13.39-.15-1.52.77-1.72,2-1.71q9.06,0,18.1,0c3.74,0,5.34-2.63,3.6-6a1.86,1.86,0,0,0-1.41-.7c-5.17-.05-10.34,0-15.52,0-1.71,0-2.33,1.22-3.19,2.31a7.4,7.4,0,0,1-1.78,1.23,8.15,8.15,0,0,1-.61-1.71c-.42-3.49-.75-7-1.17-10.47-.19-1.59.26-2.25,2-2.23,6.77.09,13.53,0,20.29.06,1.88,0,3.41-.25,4-2.38a1.58,1.58,0,0,1,1.3-.82c.38.05.89.72,1,1.18.58,3.66,1.13,7.33,1.54,11,.05.44-.73,1.23-1.28,1.41a6.66,6.66,0,0,1-2.16.06"/><path class="cls-2" d="M106,112.27c0-13.75,12-18.25,22-14.31,5.6,2.22,8.79,8.1,8.38,15.13-.38,6.32-2.77,11.63-9.12,13.86C121,129.13,115,128.61,110,123.73c-3.14-3.1-4.12-7.14-4.07-11.46m14.11,4.7c3.41-.24,6.05-.42,8.69-.63a9.34,9.34,0,0,0,1.55-.34c2.34-.63,3.16-1.58,3.17-3.67s-.78-3.17-3.17-3.64a47.08,47.08,0,0,0-18.36,0c-1.92.38-3.26,1.46-3.29,3.64,0,1.89.87,3.12,3.29,3.59,2.91.56,5.89.76,8.12,1"/><path class="cls-2" d="M135.46,172.89v17.75c-1.29.58-2,.15-2.21-1.18-.29-1.71-1.34-2.18-3-2.17q-14.22.08-28.45,0c-1.89,0-3.14.56-3.89,2.37-.24.58-1.09.9-1.65,1.34a5.37,5.37,0,0,1-.9-1.72c-.37-3.62-.6-7.26-1-10.89-.17-1.63.46-2,2-2,11.21.08,22.41.06,33.62.15,1.72,0,2.93-.27,3.42-2.18.12-.5,1.07-.79,2-1.43"/><path class="cls-2" d="M128.56,128.27c1.4.58,2.61.72,3.26,1.4,4.69,4.88,5.57,10.73,3.5,16.94-1.9,5.73-6.48,8.11-12.21,8.56-10,.79-16.48-4.87-17.06-15a31.25,31.25,0,0,1,.49-7.29,5.12,5.12,0,0,1,4.17-4.53,4.41,4.41,0,0,1,2.19,8.51c-.49.17-1.05.16-1.53.36-.86.34-2.34.72-2.38,1.18a5.5,5.5,0,0,0,.81,3.65,5.56,5.56,0,0,0,3.54,1.92,46.68,46.68,0,0,0,10.83-.06c5.45-.93,7.45-5.1,5.92-11.12-.34-1.33-.87-2.61-1.53-4.56"/><path class="cls-2" d="M107.27,172.77c-.42-4.08-.8-8.16-1.27-12.23-.19-1.63.42-2,2-2,7.49.09,15,0,22.47.11,1.59,0,2.44-.47,2.88-2,.18-.62,1-1,1.57-1.55l.53.42v16.74c-1.16.6-2,.3-2.26-1.05s-1.19-1.63-2.36-1.63c-5.83,0-11.66,0-17.5,0-1.59,0-2.5.88-3.4,2a13.15,13.15,0,0,1-2.1,1.81l-.55-.6"/><path class="cls-2" d="M104.78,164.5c-.08,3.29-2.38,5.72-5.38,5.68a5.58,5.58,0,0,1-5.33-6,5.45,5.45,0,0,1,5.62-5.63c3,.11,5.16,2.6,5.09,5.93"/><path class="cls-2" d="M94.82,239.43a3.69,3.69,0,0,1,3.31-3.94,3.39,3.39,0,0,1,3.89,2.32c.77,3.2,1.38,6.45,2,9.69.21,1.15-.77,1.6-1.43,1-2.55-2.47-5-5.09-7.34-7.72a2.77,2.77,0,0,1-.4-1.31"/><path class="cls-1" d="M122.24,210.83c-2.72,0-5.43-.05-8.14,0-1.29,0-1.89-.37-2.11-1.71-.57-3.59.59-5.68,4.12-6.46a30.4,30.4,0,0,1,14.16.28,4,4,0,0,1,3.13,5.13c-.37,1.66-1.14,2.88-3.22,2.77-2.64-.14-5.29,0-7.94,0"/><path class="cls-1" d="M120.07,117c-2.23-.26-5.21-.46-8.12-1-2.42-.47-3.32-1.7-3.29-3.59,0-2.18,1.37-3.26,3.29-3.64a47.08,47.08,0,0,1,18.36,0c2.39.47,3.18,1.58,3.17,3.64s-.83,3-3.17,3.67a9.34,9.34,0,0,1-1.55.34c-2.64.21-5.28.39-8.69.63"/></svg>