<?xml version="1.0" encoding="utf-8"?>
<!-- Generator: Adobe Illustrator 23.1.1, SVG Export Plug-In . SVG Version: 6.00 Build 0)  -->
<svg version="1.1" id="Camada_1" xmlns="http://www.w3.org/2000/svg" xmlns:xlink="http://www.w3.org/1999/xlink" x="0px" y="0px"
	 viewBox="0 0 595.28 841.89" style="enable-background:new 0 0 595.28 841.89;" xml:space="preserve">
<style type="text/css">
	.st0{fill:#FFFFFF;}
</style>
<g>
	<g>
		<path class="st0" d="M506.16,593.53c-138.72,0-277.44,0-416.16,0c0-114.88,0-229.76,0-344.64c138.72,0,277.44,0,416.16,0
			C506.16,363.77,506.16,478.65,506.16,593.53z M301.36,287.06c0,0.01,0,0.01,0,0.02c-7.55-0.25-15.09-0.51-22.64-0.75
			c-6.35-0.21-12.7-0.43-19.05-0.61c-4.71-0.14-9.43-0.29-14.14-0.3c-3.62-0.01-6.22,2.44-6.53,6.03c-0.1,1.22,0.01,2.48,0.17,3.7
			c1.05,7.91,2.15,15.82,3.23,23.73c1.23,8.98,2.46,17.96,3.69,26.94c1.25,9.1,2.51,18.19,3.75,27.29c1.24,9.1,2.46,18.2,3.69,27.3
			c1.17,8.66,2.33,17.33,3.54,25.99c0.31,2.21,0.61,4.44,1.2,6.58c0.74,2.7,3.03,3.74,5.64,2.73c0.92-0.36,1.79-0.89,2.6-1.46
			c4.65-3.25,9.3-6.5,13.92-9.8c5.18-3.7,10.94-4.97,17.24-4.47c8.88,0.7,17.78,1.23,26.67,1.84c7.41,0.51,14.83,0.96,22.24,1.58
			c5.29,0.44,9.81-3.31,10.1-8.6c0.11-1.95,0.21-3.91,0.36-5.86c0.58-7.68,1.19-15.37,1.77-23.05c0.67-8.88,1.33-17.76,2.01-26.64
			c0.77-10.15,1.54-20.31,2.31-30.46c0.7-9.2,1.4-18.4,2.08-27.59c0.12-1.67,0.37-3.36,0.22-5.02c-0.42-4.6-3.45-7.18-8.47-7.35
			c-7.07-0.24-14.14-0.42-21.21-0.65C324.28,287.81,312.82,287.43,301.36,287.06z M110.25,536.24c0.06,0.01,0.13,0.01,0.19,0.02
			c0,1.32-0.04,2.64,0.01,3.95c0.29,7.76,4.57,13.13,12.02,14.87c7.25,1.7,14.51,1.6,21.69-0.43c6.24-1.76,10.58-5.69,13.1-11.68
			c1.6-3.8,2.29-7.79,2.81-11.84c1.02-7.84,2.04-15.68,3.04-23.52c0.54-4.28,1.08-8.56,1.54-12.84c0.2-1.84-0.17-2.18-2.05-2.19
			c-4.2-0.02-8.4-0.01-12.6,0c-1.66,0.01-1.97,0.32-2.17,2.02c-0.19,1.63-0.39,3.25-0.59,4.87c-1.08,8.71-2.1,17.44-3.28,26.14
			c-0.55,4.06-1.34,8.1-2.17,12.12c-0.45,2.21-1.88,3.75-4.06,4.51c-2.26,0.78-4.55,0.84-6.83,0.13c-1.73-0.54-2.95-1.65-3.21-3.5
			c-0.2-1.38-0.37-2.8-0.24-4.17c0.43-4.49,0.98-8.97,1.52-13.45c1.06-8.76,2.16-17.51,3.22-26.27c0.25-2.07-0.06-2.4-2.15-2.41
			c-4.04-0.01-8.08-0.01-12.12,0c-2.22,0-2.48,0.28-2.76,2.51c-0.99,8-2.04,16-3.01,24C111.49,524.82,110.89,530.53,110.25,536.24z
			 M252.68,556.08c2.79,0,5.43,0.07,8.06-0.01c9.67-0.3,17.02-4.42,21.37-13.27c3.66-7.44,4.83-15.33,3.89-23.53
			c-0.39-3.39-1.51-6.53-3.81-9.14c-3.59-4.08-8.35-5.61-13.54-6.03c-7.49-0.6-14.82,0.6-22.05,2.44c-2.86,0.73-4.49,2.61-4.85,5.56
			c-0.74,5.9-1.49,11.8-2.22,17.7c-1.01,8.24-2.01,16.48-3.02,24.72c-0.74,6.06-1.51,12.12-2.23,18.19
			c-0.25,2.1,0.46,2.98,2.53,3.02c3.68,0.06,7.36,0.05,11.03,0c1.82-0.02,2.43-0.61,2.67-2.41c0.36-2.69,0.67-5.39,1.01-8.08
			C251.9,562.23,252.28,559.22,252.68,556.08z M344.08,552c0.29,1,0.53,1.92,0.81,2.83c0.51,1.66,0.93,2.02,2.63,2.04
			c2.96,0.03,5.92,0.04,8.88,0c2.3-0.03,2.91-0.8,2.8-3.14c-0.1-2.19-0.34-4.41-0.15-6.58c0.57-6.48,1.3-12.95,2.02-19.41
			c0.56-5.08,1.23-10.15,1.77-15.23c0.4-3.75-0.11-4.46-3.64-5.79c-6.41-2.41-13.01-3.18-19.79-2.12
			c-7.53,1.18-13.84,4.5-18.02,11.04c-5.69,8.91-6.89,18.69-4.75,28.88c0.92,4.4,3.38,8.05,7.71,9.8c6.43,2.6,12.77,2.6,18.69-1.61
			C343.35,552.48,343.68,552.27,344.08,552z M200.38,554.95c0,0,0,0.01,0,0.01c1.32,0,2.64,0.01,3.96,0
			c3.67-0.03,3.92,0.67,4.48-4.03c0.98-8.21,2.08-16.4,2.96-24.61c0.41-3.76,0.73-7.56,0.55-11.33c-0.2-4.24-2.39-7.6-6.42-9.22
			c-2.44-0.98-5.12-1.64-7.74-1.87c-8.8-0.78-17.23,1.21-25.49,4.04c-2.54,0.87-3.91,2.8-4.2,5.47c-0.11,0.95-0.16,1.91-0.28,2.86
			c-1.46,12.01-2.92,24.01-4.4,36.02c-0.23,1.89,0.35,2.65,2.22,2.67c3.83,0.03,7.67,0.02,11.5,0c1.71-0.01,2.22-0.43,2.43-2.13
			c0.6-4.75,1.15-9.51,1.73-14.27c0.81-6.62,1.61-13.24,2.44-19.85c0.11-0.89,0.41-1.77,1.48-1.95c2.08-0.35,4.17-0.78,6.27-0.92
			c2.18-0.15,3.54,1.06,3.91,3.22c0.15,0.86,0.22,1.76,0.12,2.62c-0.92,8.17-1.9,16.34-2.84,24.51c-0.26,2.26-0.52,4.52-0.68,6.79
			c-0.1,1.39,0.38,1.94,1.65,1.97C196.14,554.98,198.26,554.95,200.38,554.95z M420.98,536.28c2.14,0.42,4.15,1.02,6.19,1.16
			c2.05,0.15,4.16-0.03,6.21-0.29c9.13-1.15,18.24-7.14,19.16-19.37c0.29-3.9-0.84-7.35-3.9-9.98c-2.98-2.56-6.59-3.56-10.39-3.83
			c-7.39-0.53-14.62,0.38-20.57,5.11c-10.43,8.28-13.83,19.45-11.65,32.28c1.41,8.32,7.16,12.72,15.18,14.24
			c8.24,1.57,16.3,0.05,24.3-1.86c1.04-0.25,1.51-0.96,1.49-2.03c-0.04-2.4-0.05-4.79-0.11-7.19c-0.06-2.17-0.72-2.59-2.87-2.16
			c-2.7,0.54-5.4,1.11-8.13,1.37c-3.52,0.34-7.04,0.09-10.33-1.41C423.01,541.17,421.27,539.33,420.98,536.28z M468.12,556.37
			c2.46-0.24,4.93-0.42,7.37-0.75c8.78-1.18,14.2-6.21,15.92-14.71c1.2-5.91-0.62-9.88-5.92-12.77c-1.54-0.84-3.17-1.5-4.75-2.27
			c-2.15-1.05-4.33-2.05-6.41-3.22c-1.19-0.67-1.8-1.83-1.45-3.26c0.34-1.42,1.31-2.33,2.72-2.54c1.25-0.19,2.6-0.39,3.8-0.11
			c2.99,0.69,5.92,1.63,8.86,2.51c1.88,0.56,2.41,0.37,3.1-1.48c0.75-2.02,1.45-4.06,2.14-6.1c0.84-2.49,0.7-2.97-1.62-4.22
			c-7.13-3.83-14.57-4.39-22.27-2.02c-6.3,1.94-10.4,6-12.1,12.43c-1.48,5.59,0,10.02,4.77,13.28c1.9,1.3,4.02,2.28,6.04,3.41
			c1.88,1.05,3.8,2.04,5.61,3.2c1.15,0.73,1.93,1.84,1.6,3.34c-0.34,1.57-1.49,2.37-2.97,2.56c-1.33,0.17-2.74,0.32-4.04,0.07
			c-3.48-0.65-6.94-1.47-10.37-2.33c-2.06-0.51-2.53-0.39-3.23,1.62c-0.78,2.22-1.51,4.46-2.24,6.7c-0.74,2.3-0.5,2.8,1.76,3.74
			C458.8,555.27,463.4,555.94,468.12,556.37z M394.21,503.74c-2.19,0.19-4.39,0.28-6.55,0.6c-7.94,1.18-14.34,4.85-18.37,11.97
			c-3.92,6.92-5.37,14.42-4.38,22.28c1.13,9.05,5.98,14.41,14.49,16.71c6.58,1.78,12.99,0.58,19.4-0.85
			c1.87-0.42,3.03-1.82,3.23-3.75c0.19-1.82,0.19-3.66,0.21-5.49c0.03-2.39-0.54-2.86-2.87-2.37c-3.57,0.75-7.15,1.3-10.82,1.04
			c-3.99-0.28-6.72-2.49-7.32-6.34c-0.79-5.07-0.22-10.05,1.87-14.76c1.9-4.29,5.31-6.45,9.98-6.23c2.69,0.12,5.37,0.69,8.04,1.13
			c1.67,0.28,2.18,0.11,3.08-1.34c1.35-2.17,2.71-4.33,4.06-6.5c1.18-1.91,0.86-2.9-1.23-3.62
			C402.87,504.79,398.6,504.03,394.21,503.74z M303.58,488.84c-1.88,0-3.76,0.03-5.64-0.01c-2.45-0.05-2.66,0.15-2.95,2.63
			c-0.57,4.88-1.18,9.75-1.77,14.63c-1.39,11.54-2.82,23.07-4.13,34.61c-0.33,2.92-0.53,5.93,0.41,8.8
			c1.43,4.38,4.92,6.03,9.13,6.62c4.78,0.66,9.28-0.57,13.71-2.15c1.59-0.57,1.9-1.23,1.36-2.85c-0.67-2-1.37-4-2.05-5.99
			c-0.38-1.11-1.17-1.64-2.33-1.75c-2.62-0.24-3.66-1.3-3.56-3.94c0.09-2.27,0.42-4.53,0.7-6.79c1.71-13.91,3.44-27.82,5.17-41.73
			c0.21-1.73-0.04-2.05-1.81-2.07C307.73,488.83,305.66,488.84,303.58,488.84z M222.75,554.96c2,0,3.99,0.01,5.99,0
			c1.74-0.02,2.18-0.37,2.42-2.12c0.42-3.09,0.78-6.18,1.16-9.27c1.01-8.24,2.01-16.49,3.02-24.73c0.43-3.57,0.89-7.13,1.28-10.7
			c0.18-1.62-0.18-2.17-1.6-2.19c-4.43-0.07-8.87-0.03-13.3-0.03c-0.91,0-1.39,0.49-1.51,1.37c-0.2,1.5-0.42,3-0.61,4.51
			c-1.01,8.24-2.01,16.49-3.01,24.73c-0.65,5.35-1.33,10.7-1.97,16.05c-0.2,1.71,0.4,2.36,2.14,2.39
			C218.75,554.98,220.75,554.96,222.75,554.96z M230.92,485.09c-2.08,0-4.16-0.01-6.24,0c-1.11,0-1.82,0.5-1.96,1.66
			c-0.46,3.65-0.95,7.29-1.37,10.93c-0.2,1.74,0.54,2.56,2.31,2.58c3.96,0.03,7.92,0.03,11.88,0c1.54-0.01,2.1-0.51,2.29-2.03
			c0.46-3.6,0.89-7.21,1.3-10.82c0.18-1.61-0.35-2.25-1.97-2.3C235.07,485.04,233,485.09,230.92,485.09z"/>
		<path d="M301.36,287.06c11.46,0.37,22.92,0.75,34.38,1.12c7.07,0.23,14.14,0.41,21.21,0.65c5.01,0.17,8.05,2.75,8.47,7.35
			c0.15,1.65-0.1,3.35-0.22,5.02c-0.68,9.2-1.38,18.4-2.08,27.59c-0.77,10.15-1.54,20.31-2.31,30.46
			c-0.67,8.88-1.33,17.76-2.01,26.64c-0.58,7.68-1.19,15.37-1.77,23.05c-0.15,1.95-0.25,3.9-0.36,5.86
			c-0.29,5.29-4.81,9.04-10.1,8.6c-7.41-0.62-14.82-1.07-22.24-1.58c-8.89-0.61-17.79-1.14-26.67-1.84
			c-6.3-0.5-12.06,0.77-17.24,4.47c-4.62,3.29-9.26,6.55-13.92,9.8c-0.81,0.57-1.68,1.1-2.6,1.46c-2.61,1.01-4.9-0.03-5.64-2.73
			c-0.59-2.14-0.89-4.37-1.2-6.58c-1.21-8.66-2.36-17.33-3.54-25.99c-1.23-9.1-2.45-18.2-3.69-27.3c-1.24-9.1-2.5-18.19-3.75-27.29
			c-1.23-8.98-2.46-17.96-3.69-26.94c-1.08-7.91-2.17-15.82-3.23-23.73c-0.16-1.22-0.27-2.48-0.17-3.7
			c0.31-3.59,2.91-6.04,6.53-6.03c4.71,0.01,9.43,0.17,14.14,0.3c6.35,0.18,12.7,0.41,19.05,0.61c7.55,0.25,15.09,0.5,22.64,0.75
			C301.36,287.07,301.36,287.07,301.36,287.06z M291.82,316.62c0.47,4.56,0.99,9.64,1.54,14.72c1.16,10.88,2.33,21.75,3.5,32.63
			c1.22,11.39,2.41,22.79,3.66,34.18c0.3,2.74,1.62,4.95,4.12,6.23c1.48,0.76,3.03,1.5,4.64,1.85c11.66,2.55,23.34,5,35.02,7.45
			c2.46,0.52,3.78-0.49,3.96-2.96c0.19-2.51,0.31-5.02,0.47-7.53c0.67-10.52,1.34-21.04,2.01-31.55c0.61-9.52,1.22-19.04,1.83-28.56
			c0.6-9.28,1.21-18.56,1.82-27.85c0.28-4.22,0.62-8.44,0.8-12.67c0.11-2.68-1.09-3.51-3.7-2.95c-4.76,1.02-9.53,2-14.3,3.01
			c-13.94,2.95-27.89,5.89-41.82,8.86C292.5,312.09,291.73,313.16,291.82,316.62z"/>
		<path d="M110.25,536.24c0.64-5.71,1.24-11.43,1.93-17.13c0.97-8,2.02-16,3.01-24c0.28-2.23,0.54-2.51,2.76-2.51
			c4.04,0,8.08-0.01,12.12,0c2.09,0.01,2.4,0.33,2.15,2.41c-1.06,8.76-2.16,17.51-3.22,26.27c-0.54,4.48-1.09,8.96-1.52,13.45
			c-0.13,1.37,0.04,2.8,0.24,4.17c0.26,1.85,1.48,2.96,3.21,3.5c2.28,0.71,4.57,0.65,6.83-0.13c2.18-0.76,3.61-2.3,4.06-4.51
			c0.83-4.02,1.62-8.05,2.17-12.12c1.18-8.7,2.2-17.43,3.28-26.14c0.2-1.62,0.4-3.25,0.59-4.87c0.2-1.7,0.51-2.01,2.17-2.02
			c4.2-0.01,8.4-0.02,12.6,0c1.88,0.01,2.24,0.34,2.05,2.19c-0.46,4.29-1,8.57-1.54,12.84c-1,7.84-2.03,15.68-3.04,23.52
			c-0.52,4.04-1.21,8.04-2.81,11.84c-2.52,5.99-6.87,9.91-13.1,11.68c-7.18,2.03-14.44,2.13-21.69,0.43
			c-7.45-1.75-11.73-7.12-12.02-14.87c-0.05-1.32-0.01-2.64-0.01-3.95C110.38,536.26,110.31,536.25,110.25,536.24z"/>
		<path d="M252.68,556.08c-0.4,3.14-0.78,6.15-1.16,9.16c-0.34,2.69-0.65,5.39-1.01,8.08c-0.24,1.8-0.85,2.39-2.67,2.41
			c-3.68,0.05-7.36,0.06-11.03,0c-2.07-0.04-2.78-0.92-2.53-3.02c0.72-6.06,1.49-12.12,2.23-18.19c1.01-8.24,2-16.48,3.02-24.72
			c0.73-5.9,1.48-11.8,2.22-17.7c0.37-2.95,1.99-4.83,4.85-5.56c7.23-1.83,14.56-3.04,22.05-2.44c5.19,0.42,9.96,1.94,13.54,6.03
			c2.3,2.62,3.42,5.75,3.81,9.14c0.94,8.21-0.23,16.09-3.89,23.53c-4.35,8.85-11.7,12.97-21.37,13.27
			C258.11,556.15,255.47,556.08,252.68,556.08z M262.13,516.43c-3.89,0.01-4.65,0.65-5.13,4.37c-0.83,6.53-1.65,13.06-2.48,19.58
			c-0.24,1.86,0.2,2.48,2.03,2.8c4.48,0.79,8.32-1.16,10.49-5.55c2.34-4.73,3.15-9.77,2.41-15
			C268.84,518.27,266.57,516.42,262.13,516.43z"/>
		<path d="M344.08,552c-0.4,0.27-0.73,0.48-1.05,0.71c-5.91,4.2-12.26,4.21-18.69,1.61c-4.32-1.75-6.78-5.4-7.71-9.8
			c-2.14-10.19-0.94-19.97,4.75-28.88c4.18-6.54,10.48-9.87,18.02-11.04c6.78-1.06,13.37-0.29,19.79,2.12
			c3.53,1.33,4.04,2.04,3.64,5.79c-0.54,5.08-1.21,10.15-1.77,15.23c-0.71,6.47-1.44,12.93-2.02,19.41
			c-0.19,2.17,0.04,4.39,0.15,6.58c0.11,2.34-0.51,3.11-2.8,3.14c-2.96,0.04-5.92,0.03-8.88,0c-1.7-0.02-2.12-0.37-2.63-2.04
			C344.61,553.92,344.36,553,344.08,552z M342.7,516.5c-0.37,0.04-0.97,0.07-1.55,0.18c-3,0.53-4.59,2.69-5.92,5.14
			c-1.61,2.97-1.83,6.33-2.67,9.52c-0.74,2.85-0.18,5.53,0.54,8.23c0.2,0.75,0.58,1.5,1.02,2.15c1.28,1.89,3.58,2.47,6.35,1.88
			c2.19-0.47,2.57-2.05,2.79-3.9c0.48-4.04,1.07-8.07,1.58-12.11c0.37-2.97,0.74-5.94,1.02-8.92c0.13-1.39-0.36-1.87-1.73-2.07
			C343.73,516.54,343.33,516.54,342.7,516.5z"/>
		<path d="M200.38,554.95c-2.12,0-4.23,0.03-6.35-0.01c-1.26-0.03-1.75-0.57-1.65-1.97c0.16-2.27,0.42-4.53,0.68-6.79
			c0.94-8.17,1.92-16.34,2.84-24.51c0.1-0.86,0.02-1.76-0.12-2.62c-0.37-2.17-1.73-3.38-3.91-3.22c-2.1,0.15-4.18,0.58-6.27,0.92
			c-1.06,0.18-1.36,1.06-1.48,1.95c-0.83,6.61-1.63,13.23-2.44,19.85c-0.58,4.76-1.13,9.51-1.73,14.27
			c-0.21,1.7-0.72,2.13-2.43,2.13c-3.83,0.02-7.67,0.02-11.5,0c-1.87-0.01-2.45-0.77-2.22-2.67c1.47-12.01,2.94-24.01,4.4-36.02
			c0.12-0.95,0.17-1.91,0.28-2.86c0.3-2.67,1.66-4.6,4.2-5.47c8.26-2.83,16.69-4.82,25.49-4.04c2.62,0.23,5.3,0.89,7.74,1.87
			c4.03,1.62,6.22,4.98,6.42,9.22c0.18,3.76-0.14,7.57-0.55,11.33c-0.89,8.22-1.98,16.41-2.96,24.61c-0.56,4.7-0.81,4-4.48,4.03
			c-1.32,0.01-2.64,0-3.96,0C200.38,554.95,200.38,554.95,200.38,554.95z"/>
		<path d="M420.98,536.28c0.29,3.05,2.03,4.89,4.58,6.06c3.29,1.51,6.81,1.75,10.33,1.41c2.73-0.26,5.44-0.83,8.13-1.37
			c2.15-0.43,2.81-0.01,2.87,2.16c0.06,2.39,0.07,4.79,0.11,7.19c0.02,1.06-0.45,1.78-1.49,2.03c-8,1.91-16.05,3.43-24.3,1.86
			c-8.02-1.52-13.76-5.92-15.18-14.24c-2.18-12.82,1.22-23.99,11.65-32.28c5.95-4.73,13.18-5.64,20.57-5.11
			c3.8,0.27,7.41,1.27,10.39,3.83c3.06,2.63,4.19,6.09,3.9,9.98c-0.92,12.23-10.03,18.21-19.16,19.37
			c-2.05,0.26-4.15,0.43-6.21,0.29C425.13,537.3,423.12,536.7,420.98,536.28z M434.32,515.15c-6.45,0.23-10.8,4.17-12.7,10.04
			c-0.38,1.18,0.06,1.93,1.22,2.31c0.49,0.16,1.02,0.32,1.52,0.3c4.2-0.19,8.25-0.95,11.54-3.84c0.88-0.77,1.64-1.77,2.19-2.81
			C439.66,518.14,437.73,515.14,434.32,515.15z"/>
		<path d="M468.12,556.37c-4.72-0.42-9.32-1.09-13.7-2.91c-2.25-0.93-2.5-1.44-1.76-3.74c0.72-2.24,1.46-4.48,2.24-6.7
			c0.7-2.01,1.17-2.13,3.23-1.62c3.44,0.86,6.89,1.67,10.37,2.33c1.3,0.24,2.71,0.1,4.04-0.07c1.48-0.19,2.63-0.99,2.97-2.56
			c0.33-1.5-0.45-2.61-1.6-3.34c-1.81-1.16-3.73-2.15-5.61-3.2c-2.02-1.13-4.14-2.11-6.04-3.41c-4.77-3.26-6.25-7.69-4.77-13.28
			c1.71-6.43,5.8-10.49,12.1-12.43c7.7-2.37,15.14-1.81,22.27,2.02c2.33,1.25,2.47,1.73,1.62,4.22c-0.69,2.04-1.39,4.08-2.14,6.1
			c-0.69,1.85-1.21,2.04-3.1,1.48c-2.94-0.88-5.87-1.82-8.86-2.51c-1.2-0.28-2.55-0.08-3.8,0.11c-1.41,0.21-2.38,1.11-2.72,2.54
			c-0.34,1.43,0.26,2.6,1.45,3.26c2.09,1.17,4.26,2.17,6.41,3.22c1.58,0.77,3.21,1.43,4.75,2.27c5.3,2.89,7.12,6.86,5.92,12.77
			c-1.72,8.5-7.14,13.53-15.92,14.71C473.05,555.95,470.58,556.12,468.12,556.37z"/>
		<path d="M394.21,503.74c4.39,0.29,8.66,1.05,12.8,2.48c2.09,0.72,2.42,1.71,1.23,3.62c-1.34,2.17-2.7,4.33-4.06,6.5
			c-0.9,1.45-1.41,1.61-3.08,1.34c-2.67-0.44-5.35-1.01-8.04-1.13c-4.66-0.22-8.08,1.94-9.98,6.23c-2.09,4.72-2.66,9.69-1.87,14.76
			c0.6,3.84,3.33,6.06,7.32,6.34c3.66,0.26,7.25-0.3,10.82-1.04c2.33-0.49,2.9-0.03,2.87,2.37c-0.02,1.83-0.03,3.67-0.21,5.49
			c-0.2,1.93-1.35,3.33-3.23,3.75c-6.4,1.43-12.82,2.63-19.4,0.85c-8.51-2.3-13.36-7.66-14.49-16.71
			c-0.98-7.87,0.46-15.37,4.38-22.28c4.03-7.12,10.43-10.79,18.37-11.97C389.82,504.02,392.02,503.93,394.21,503.74z"/>
		<path d="M303.58,488.84c2.08,0,4.15-0.02,6.23,0.01c1.77,0.02,2.03,0.34,1.81,2.07c-1.73,13.91-3.45,27.82-5.17,41.73
			c-0.28,2.26-0.61,4.52-0.7,6.79c-0.1,2.65,0.94,3.71,3.56,3.94c1.16,0.11,1.95,0.63,2.33,1.75c0.68,2,1.39,3.99,2.05,5.99
			c0.54,1.62,0.23,2.29-1.36,2.85c-4.43,1.58-8.93,2.8-13.71,2.15c-4.22-0.58-7.7-2.24-9.13-6.62c-0.94-2.87-0.74-5.88-0.41-8.8
			c1.31-11.54,2.74-23.08,4.13-34.61c0.59-4.88,1.2-9.75,1.77-14.63c0.29-2.48,0.51-2.67,2.95-2.63
			C299.82,488.87,301.7,488.84,303.58,488.84z"/>
		<path d="M222.75,554.96c-2,0-3.99,0.02-5.99-0.01c-1.74-0.02-2.34-0.67-2.14-2.39c0.63-5.35,1.31-10.7,1.97-16.05
			c1.01-8.24,2.01-16.49,3.01-24.73c0.18-1.5,0.41-3,0.61-4.51c0.12-0.88,0.59-1.37,1.51-1.37c4.43,0,8.87-0.03,13.3,0.03
			c1.42,0.02,1.78,0.57,1.6,2.19c-0.4,3.57-0.85,7.14-1.28,10.7c-1,8.24-2.01,16.49-3.02,24.73c-0.38,3.09-0.74,6.19-1.16,9.27
			c-0.24,1.75-0.68,2.1-2.42,2.12C226.74,554.97,224.74,554.96,222.75,554.96z"/>
		<path d="M230.92,485.09c2.08,0,4.15-0.05,6.23,0.02c1.62,0.05,2.15,0.69,1.97,2.3c-0.41,3.61-0.84,7.22-1.3,10.82
			c-0.19,1.52-0.75,2.02-2.29,2.03c-3.96,0.03-7.92,0.03-11.88,0c-1.76-0.01-2.51-0.84-2.31-2.58c0.43-3.65,0.92-7.29,1.37-10.93
			c0.15-1.16,0.85-1.66,1.96-1.66C226.76,485.08,228.84,485.09,230.92,485.09z"/>
		<path class="st0" d="M291.82,316.62c-0.09-3.47,0.68-4.53,3.54-5.14c13.94-2.97,27.88-5.91,41.82-8.86
			c4.76-1.01,9.54-1.99,14.3-3.01c2.61-0.56,3.8,0.27,3.7,2.95c-0.17,4.23-0.52,8.45-0.8,12.67c-0.61,9.28-1.22,18.56-1.82,27.85
			c-0.62,9.52-1.22,19.04-1.83,28.56c-0.67,10.52-1.34,21.04-2.01,31.55c-0.16,2.51-0.28,5.02-0.47,7.53
			c-0.19,2.47-1.51,3.48-3.96,2.96c-11.68-2.45-23.36-4.91-35.02-7.45c-1.61-0.35-3.16-1.1-4.64-1.85c-2.5-1.28-3.82-3.48-4.12-6.23
			c-1.24-11.39-2.44-22.79-3.66-34.18c-1.16-10.88-2.34-21.75-3.5-32.63C292.81,326.26,292.29,321.18,291.82,316.62z"/>
		<path class="st0" d="M262.13,516.43c4.44-0.01,6.71,1.84,7.33,6.21c0.73,5.23-0.07,10.27-2.41,15c-2.17,4.39-6.01,6.33-10.49,5.55
			c-1.83-0.32-2.27-0.94-2.03-2.8c0.83-6.53,1.65-13.06,2.48-19.58C257.48,517.07,258.24,516.43,262.13,516.43z"/>
		<path class="st0" d="M342.7,516.5c0.63,0.04,1.03,0.03,1.43,0.09c1.37,0.2,1.86,0.68,1.73,2.07c-0.28,2.98-0.65,5.95-1.02,8.92
			c-0.51,4.04-1.09,8.07-1.58,12.11c-0.22,1.85-0.6,3.43-2.79,3.9c-2.77,0.6-5.06,0.02-6.35-1.88c-0.44-0.65-0.82-1.39-1.02-2.15
			c-0.72-2.7-1.29-5.38-0.54-8.23c0.83-3.19,1.06-6.55,2.67-9.52c1.33-2.45,2.92-4.61,5.92-5.14
			C341.73,516.58,342.33,516.54,342.7,516.5z"/>
		<path class="st0" d="M434.32,515.15c3.42-0.01,5.35,3,3.77,6.01c-0.54,1.04-1.31,2.03-2.19,2.81c-3.28,2.89-7.33,3.65-11.54,3.84
			c-0.5,0.02-1.03-0.14-1.52-0.3c-1.17-0.38-1.61-1.13-1.22-2.31C423.52,519.32,427.86,515.38,434.32,515.15z"/>
	</g>
</g>
</svg>
